<svg xmlns="http://www.w3.org/2000/svg" width="160.829" height="39.523" viewBox="0 0 160.829 39.523"><defs><style>.a{fill:#fff;}</style></defs><g transform="translate(-61.546 -10.631)"><path class="a" d="M-4056.678,27.139c-8.324-5.169-11.239-16.6-6.512-25.54.23-.427.471-.85.727-1.253l.044-.065.063-.025.02.069-.039.074a19.738,19.738,0,0,0-2.282,9.276c0,10.3,7.709,18.649,17.219,18.649a17.023,17.023,0,0,0,14.937-9.372l.047-.084.058-.027.02.074-.037.088c-.193.444-.4.886-.637,1.314A16.969,16.969,0,0,1-4048,29.654,16.383,16.383,0,0,1-4056.678,27.139Zm62.534.769c-.922-.928-1.348-1.985-1.348-4.1v-8.82h2.441v9.193a3.89,3.89,0,0,0,.791,2.821,4,4,0,0,0,3.1,1.16,3.979,3.979,0,0,0,3.089-1.16,3.89,3.89,0,0,0,.783-2.821V14.991h2.458v8.82c0,2.112-.435,3.169-1.351,4.1-1.043,1.082-2.747,1.594-4.979,1.594C-3991.411,29.5-3993.1,28.99-3994.145,27.908Zm-29.438.328.631-2.083a8.072,8.072,0,0,0,5.1,1.943c2.206,0,2.983-1.448,2.983-2.328,0-3.083-6.423-2.609-7.971-5.487a3.623,3.623,0,0,1-.375-1.7c.023-2.558,2.158-3.973,5.363-4.061a9.43,9.43,0,0,1,4.273.957l-.686,1.755a5.387,5.387,0,0,0-3.555-1.452,3.212,3.212,0,0,0-2.652,1,1.777,1.777,0,0,0-.366,1.04c0,3.2,8.21,1.922,8.21,7.022a4.11,4.11,0,0,1-1.507,3.319,6.04,6.04,0,0,1-3.828,1.279A12.23,12.23,0,0,1-4023.583,28.235Zm45.55.964V16.184a14.613,14.613,0,0,0-1.765.417l-.2-1.054a26.348,26.348,0,0,1,6.329-.849c3.956-.084,8.579,1.753,8.579,7.354a7,7,0,0,1-6.183,6.982,29.113,29.113,0,0,1-3.846.2C-3975.927,29.238-3976.868,29.223-3978.032,29.2Zm2.445-13.308v9.854c0,.848.009,1.415.381,1.763a3.626,3.626,0,0,0,2.008.457c2.958,0,5.534-1.582,5.533-5.875,0-4.79-3.325-6.258-6.716-6.258C-3974.784,15.832-3975.188,15.853-3975.587,15.892Zm30.6,13.309c-.983-2.155-3.544-5.277-7.795-4.976l-2.237,4.976h-1.733l6.847-14.44h.878l6.822,14.44Zm-7.26-6.178a8.174,8.174,0,0,1,5.248,1.62l-2.985-6.632Zm-47.628,6.177c-.982-2.156-3.543-5.28-7.793-4.977l-2.238,4.977h-1.735l6.852-14.44h.872l6.825,14.44Zm-7.26-6.176a8.194,8.194,0,0,1,5.25,1.616l-2.987-6.632Zm45.417,6.173V14.991h2.457V29.2Zm34.744-6.987.01-.013a12.555,12.555,0,0,0,9.175,3.072c7.317-.555,12.836-7.431,12.323-15.367A14.894,14.894,0,0,0-3909.3.743l.01-.014a14.823,14.823,0,0,1,4.628,9.952c.51,7.931-5.009,14.813-12.327,15.363q-.474.036-.942.036A12.735,12.735,0,0,1-3926.973,22.21Zm-118.18,1.03a.5.5,0,0,1-.48-.484.469.469,0,0,1,.433-.524.476.476,0,0,1,.464.5v.049a12.528,12.528,0,0,0,1.3-1.455c-1.083-.671-2.462-1.638-4-2.681-1.543,1.043-2.922,2.01-4.006,2.681a13.14,13.14,0,0,0,1.3,1.455v-.049a.477.477,0,0,1,.461-.5.472.472,0,0,1,.436.524.5.5,0,0,1-.48.484,1.034,1.034,0,0,1-.609-.168,9.778,9.778,0,0,1-1.913-1.841,12.175,12.175,0,0,0-2.044-2.017l.011.111a.476.476,0,0,1-.463.488.484.484,0,0,1-.438-.512.511.511,0,0,1,.3-.455c.155-.071.8-.361,2.528,1.454,1.09-.8,2.375-1.759,3.5-2.594-4.5-2.941-9.975-5.938-13.667-4.351,4-4.745,13.256,1.963,14.35,2.76.2.145.457.331.737.539.281-.209.533-.394.737-.539,1.092-.8,10.347-7.5,14.348-2.76-3.689-1.586-9.16,1.41-13.667,4.351,1.125.835,2.415,1.794,3.5,2.592,1.729-1.813,2.373-1.523,2.529-1.452a.519.519,0,0,1,.3.455.489.489,0,0,1-.442.512.479.479,0,0,1-.459-.488l.009-.111a12.241,12.241,0,0,0-2.041,2.017,9.789,9.789,0,0,1-1.915,1.841,1.088,1.088,0,0,1-.553.171Zm2.56-1.4c.095-.105.2-.219.3-.336.219-.241.4-.45.573-.633,1.695,1.16,3.037,1.855,3.869,1.488a2.25,2.25,0,0,1,.367-.167.13.13,0,0,1,.127.043.186.186,0,0,1,.01.193.854.854,0,0,1-.219.278,1.886,1.886,0,0,1-1.373.514A7.553,7.553,0,0,1-4042.592,21.844Zm-14.727.866a.892.892,0,0,1-.218-.278.206.206,0,0,1,.009-.193.138.138,0,0,1,.13-.043,2.122,2.122,0,0,1,.365.167c.831.367,2.174-.329,3.868-1.488.167.183.356.392.572.633.106.116.206.231.3.336a7.571,7.571,0,0,1-3.659,1.38A1.885,1.885,0,0,1-4057.319,22.71Zm123.824-4.21c-.327-.9-.149-1.562.484-1.865l.181.478c-.428.255-.518.639-.3,1.234.2.537.511.774.846.624.269-.114.315-.364.205-1.009l-.05-.254a2.816,2.816,0,0,1-.056-1.192.8.8,0,0,1,.483-.616c.6-.265,1.169.142,1.506,1.057.365.988.168,1.732-.543,2.053l-.181-.483c.5-.228.625-.734.354-1.452-.212-.587-.561-.848-.92-.689-.295.127-.358.417-.253,1.083l.045.283.034.245a2.292,2.292,0,0,1,.046.882.755.755,0,0,1-.463.559.867.867,0,0,1-.347.076C-3932.858,19.514-3933.251,19.154-3933.494,18.5Zm8.691-1.207.054-.028a2.688,2.688,0,0,0,1.615.335,5.751,5.751,0,0,0,2.959-1.388,21.913,21.913,0,0,0,2.5-2.4l1.144-1.234,1.335-1.406-.038-.014-2.155-.684-1.068,1.148-1.52,1.618a5.593,5.593,0,0,1-3.185,1.885,2.593,2.593,0,0,1-2.2-.767l.042-.037a2.031,2.031,0,0,0,1.456.109,6.407,6.407,0,0,0,2.813-1.931l.056-.057c.733-.7,1.523-1.563,2.294-2.382l-.6-.192c-.646-.2-1.242-.375-1.769-.505a21.892,21.892,0,0,1-2.268,2.132,3.762,3.762,0,0,1-4.032.57c-.285-.118-1.211-.553-1.223-1.433a1.361,1.361,0,0,1,.388-.949,5.51,5.51,0,0,1,3.9-1.279,12.108,12.108,0,0,1,2.207.215l.9-.935c.8-.826,1.619-1.686,2.036-2.077a6.05,6.05,0,0,1,3.892-1.975,3.942,3.942,0,0,1,3.144,1.386l-.038.038a3.372,3.372,0,0,0-2.145-.6c-.826.009-2.015.234-3.905,1.954-.522.481-1.19,1.19-1.894,1.937l-.6.614,1.047.345.241.082,1,.334a25.234,25.234,0,0,1,2-2.044,4.908,4.908,0,0,1,3.119-1.357,3.4,3.4,0,0,1,2.5,1.019l-.042.04a3.2,3.2,0,0,0-1.758-.29,5.212,5.212,0,0,0-2.971,1.517c-.444.429-.941.935-1.522,1.524l1.971.6.262.077.706-.679a4.8,4.8,0,0,1,3.121-1.436,2.916,2.916,0,0,1,1.652.522,1.3,1.3,0,0,1,.7,1.091c-.01.8-1.16,1.493-2.5,1.526a10.218,10.218,0,0,1-2.686-.3l-1.418,1.556c-.763.856-1.623,1.822-2.491,2.687-1.909,1.9-3.133,2.616-4.515,2.667h-.086A3.4,3.4,0,0,1-3924.8,17.293Zm.774-8.243c-3.435.183-3.477,1.812-3.477,1.881,0,.512.3.78.911.823,1.241.095,2.63-1.267,3.458-2.084l.215-.21.388-.365a7.5,7.5,0,0,0-.95-.063C-3923.684,9.031-3923.861,9.04-3924.029,9.05Zm11.337,1.389a7,7,0,0,0-.737.644,5.845,5.845,0,0,0,2.642-.177c.716-.279,1.083-.628,1.083-1.045,0-.4-.365-.5-.666-.514h-.037A4.694,4.694,0,0,0-3912.692,10.44Zm-136.6,3.345v-.113l1.426-.789-.443-3.267h.288l-.35-3.267h.334l-.423-3.268h.4l-.349-3.212c-1.177,1.645-1.925,4.971-2.156,7.531-.991-1.973-.652-6.445.383-8.295-1.828,1.081-3.823,4.047-4.963,7.08-.629-2.853,1.4-6.924,3.548-8.668-2.1.412-4.852,2.186-7.491,5.563a10.618,10.618,0,0,1,7.435-7.821,13.641,13.641,0,0,0-7.708,1.9,10.7,10.7,0,0,1,9.079-4.09,3.08,3.08,0,0,0-1.516-.977,3.153,3.153,0,0,1,3.45.54,3.339,3.339,0,0,1,.912-2.091,3.374,3.374,0,0,1,.913,2.091,3.149,3.149,0,0,1,3.45-.54,3.059,3.059,0,0,0-1.517.977,10.7,10.7,0,0,1,9.076,4.09,13.628,13.628,0,0,0-7.709-1.9,10.605,10.605,0,0,1,7.433,7.821c-2.637-3.376-5.383-5.151-7.487-5.563,2.154,1.744,4.177,5.814,3.55,8.668-1.144-3.033-3.136-6-4.966-7.08,1.034,1.85,1.376,6.321.382,8.295-.233-2.56-.978-5.887-2.156-7.531l-.348,3.212h.4l-.425,3.268h.336l-.351,3.267h.286l-.437,3.267-.431.362.434-.362,1.425.789v.113ZM-3934.56,13l1.344-.032h.189l.174,0-.115-.136-.118-.128-1.513-1.778-.015-.705,1.406,1.693,2.019-1.84.01.676-1.709,1.534.553.663,1.2-.03.01.536-3.422.078Zm-77.791-2.437,1.327-1.5,1.335,1.5-1.335,1.508Zm-3.5,0,1.35-1.5,1.333,1.5-1.333,1.508Zm28.85.259c1.213-.246,1.12-1.973,1.12-2.876V5.607h-6.71c0-6.656,3.976-10.711,8.984-11.385v9.45h5.794A3.676,3.676,0,0,1-3979.352.3c0-3.05,2.265-4.254,4.972-4.254h3.328v1.922h-3.749c-1.721,0-3.3.741-3.3,2.665,0,1.37.6,2.843,3.145,3.034h8.83V-3.95h2.287V3.671h2.876V-3.94h2.285V3.671h2.881V-3.95h2.3V3.7a3.128,3.128,0,0,0,.258,1.474,1.552,1.552,0,0,0,1.484.8,1.537,1.537,0,0,0,1.479-.8,3.16,3.16,0,0,0,.251-1.474V-6.9h2.281v10.4a4.783,4.783,0,0,1-.647,2.844,3.834,3.834,0,0,1-3.365,1.521,3.867,3.867,0,0,1-3.39-1.521,3.926,3.926,0,0,1-.364-.731h-28.1v.966a6.513,6.513,0,0,1-.575,3.463A3.988,3.988,0,0,1-3987,11.859Zm-3.579-7.513v.36h4.7V-4.145C-3987.464-3.679-3990.58-1.032-3990.58,3.311Zm-25.571,3a4.188,4.188,0,0,1-.366-.7h-6.962c0-6.172,3.527-10.835,8.977-11.393V3.672a3.179,3.179,0,0,0,.263,1.49,1.548,1.548,0,0,0,1.479.791,1.524,1.524,0,0,0,1.474-.791,3.218,3.218,0,0,0,.261-1.49v-8.46h2.281V3.466a4.668,4.668,0,0,1-.669,2.842,3.809,3.809,0,0,1-3.364,1.521A3.844,3.844,0,0,1-4016.15,6.308Zm-5.311-2.963v.327h4.667V-4.159C-4018.387-3.693-4021.461-.971-4021.461,3.346Zm87.44,3.477,1.471-.447.18-.051a2.332,2.332,0,0,1,.247-.066,4.326,4.326,0,0,1-.261-.369l-.906-1.327.19-.587,1.41,2.182,1.32.5-.158.505-1.324-.505-2.364.776Zm-10.513-1.217V-6.9h2.271V5.606Zm-61.565-.038V3.632h5.516c2.87,0,4.478-.535,4.478-2.907,0-2.67-2.179-2.782-4.3-2.782h-2.75V-4h3.282c2.95,0,5.029,1.063,5.029,4.733,0,3.646-1.752,4.832-5.325,4.832Zm75.483-4.584-.722.957-.488-.436,1.962-2.6.49.433L-3930.1.3l2.159,1.916-.518.688Zm3.109-4.213,2.438-1.549.322.6-1.729,1.1.369.687,1.586-1.007.3.547-1.588,1,.425.791,1.761-1.119.323.593-2.475,1.564Zm14.173,1.381.277-1.1c.026-.127.072-.3.133-.533s.108-.41.141-.547c.049-.151.089-.3.137-.465l.079-.261c-.2.375-.283.505-.469.81-.074.134-.145.243-.207.339l-.972,1.478-.626-.181-.194-1.773a3.567,3.567,0,0,1-.033-.4c-.014-.235-.022-.411-.031-.532,0-.1,0-.246,0-.452l-.088.452c-.1.486-.146.7-.281,1.281l-.286,1.2-.759-.132.858-3.627,1.153.241.163,1.72a8.325,8.325,0,0,1,.034,1.216,5.92,5.92,0,0,1,.322-.615c.1-.17.187-.313.268-.436l.9-1.4,1.094.4-.89,3.621Zm-7.65-4.3.845-.144,2.02,3.55-.89.065-.445-.8-1.381.239-.194.915-.854.236Zm.393,1.58-.141.71.994-.174-.34-.624a5.729,5.729,0,0,1-.367-.754A6.7,6.7,0,0,1-3920.591-4.565Zm9.68.845a.623.623,0,0,1-.3-.794.548.548,0,0,1,.741-.322.633.633,0,0,1,.3.8.556.556,0,0,1-.512.367A.53.53,0,0,1-3910.911-3.719Zm-.2-.807a.546.546,0,0,0,.19.7.458.458,0,0,0,.646-.2.535.535,0,0,0-.189-.7.452.452,0,0,0-.234-.066A.462.462,0,0,0-3911.108-4.526Zm.415.625-.024-.363-.09-.057-.139.27-.075-.043.3-.589.236.145c.095.057.178.14.113.264a.162.162,0,0,1-.251.063l.024.364Zm-.07-.5.09.056c.063.037.176.12.224.03.028-.061-.038-.114-.095-.153l-.144-.083Zm-106.4-3.96,1.334-1.507,1.351,1.507-1.351,1.5Zm-3.488,0,1.339-1.507,1.33,1.507-1.33,1.5Z" transform="translate(4127 20.5)"/></g></svg>